<?xml version="1.0" standalone="no"?>
<!DOCTYPE svg PUBLIC "-//W3C//DTD SVG 20010904//EN"
 "http://www.w3.org/TR/2001/REC-SVG-20010904/DTD/svg10.dtd">
<svg version="1.0" xmlns="http://www.w3.org/2000/svg"
 width="512.000000pt" height="512.000000pt" viewBox="0 0 512.000000 512.000000"
 preserveAspectRatio="xMidYMid meet">
<metadata>
Created by potrace 1.14, written by Peter Selinger 2001-2017
</metadata>
<g transform="translate(0.000000,512.000000) scale(0.100000,-0.100000)"
fill="#000000" stroke="none">
<path d="M4153 4593 l2 -338 118 0 c65 0 121 4 124 9 5 7 8 595 4 654 -1 9
-33 12 -125 12 l-125 0 2 -337z"/>
<path d="M1937 3704 c-1 -1 -49 -4 -107 -8 -259 -16 -522 -98 -687 -215 -239
-171 -382 -436 -419 -776 -4 -33 -7 -71 -8 -85 l-1 -25 125 0 125 0 8 69 c17
155 78 326 157 441 49 72 153 169 233 219 64 40 201 102 246 111 9 2 47 11 84
20 92 21 189 30 332 28 431 -4 737 -180 873 -505 25 -58 27 -75 28 -220 2
-160 -8 -238 -40 -312 -52 -123 -163 -191 -386 -234 -164 -33 -268 -45 -540
-67 -41 -3 -95 -8 -120 -10 -25 -2 -79 -7 -120 -10 -184 -15 -434 -66 -572
-118 -183 -69 -347 -184 -440 -307 -73 -97 -138 -253 -156 -373 -9 -67 -9
-316 1 -387 44 -329 260 -577 593 -680 38 -11 85 -23 104 -26 19 -3 38 -8 41
-9 3 -2 28 -7 55 -11 27 -3 58 -8 69 -11 11 -3 106 -6 210 -8 263 -4 448 29
648 115 271 117 484 308 599 538 23 45 44 82 47 82 4 0 6 -64 6 -142 0 -146
16 -256 48 -329 19 -44 85 -112 130 -135 94 -50 244 -66 395 -44 l82 12 0 108
0 107 -39 -7 c-22 -4 -77 -8 -123 -9 -112 -3 -161 22 -200 100 -15 30 -30 74
-34 99 -4 25 -8 547 -9 1160 -2 613 -5 1124 -8 1135 -3 11 -13 52 -22 92 -32
139 -133 296 -250 389 -164 130 -407 209 -705 230 -85 5 -249 11 -253 8z m987
-1876 c0 -183 -4 -358 -8 -388 -12 -90 -50 -232 -83 -310 -30 -71 -38 -86 -77
-155 -156 -276 -409 -458 -736 -531 -19 -4 -37 -8 -40 -9 -3 -1 -34 -5 -70 -9
-36 -5 -74 -10 -85 -12 -11 -2 -72 -4 -135 -5 -251 -2 -454 51 -612 158 -122
83 -225 232 -265 383 -27 100 -24 310 5 415 73 256 259 410 597 495 60 15 128
30 150 33 22 4 72 10 110 16 39 5 97 12 130 16 33 3 76 7 95 10 19 2 70 7 113
10 42 3 96 8 120 10 23 3 69 7 102 10 335 28 547 83 650 169 17 14 32 25 35
26 3 0 5 -150 4 -332z"/>
<path d="M4160 3620 c-5 -3 -8 -744 -7 -1679 l2 -1673 119 0 c71 -1 121 4 125
10 9 14 6 3330 -3 3340 -9 8 -223 10 -236 2z"/>
</g>
</svg>
